<svg width="24" height="24" viewBox="0 0 24 24" fill="none" xmlns="http://www.w3.org/2000/svg">
<path fill-rule="evenodd" clip-rule="evenodd" d="M10.875 4.5C7.35418 4.5 4.5 7.35418 4.5 10.875C4.5 14.3958 7.35418 17.25 10.875 17.25C14.3958 17.25 17.25 14.3958 17.25 10.875C17.25 7.35418 14.3958 4.5 10.875 4.5ZM1.5 10.875C1.5 5.69733 5.69733 1.5 10.875 1.5C16.0527 1.5 20.25 5.69733 20.25 10.875C20.25 16.0527 16.0527 20.25 10.875 20.25C5.69733 20.25 1.5 16.0527 1.5 10.875Z" fill="white"/>
<path fill-rule="evenodd" clip-rule="evenodd" d="M15.4393 15.4393C16.0251 14.8536 16.9749 14.8536 17.5607 15.4393L22.0607 19.9393C22.6464 20.5251 22.6464 21.4749 22.0607 22.0607C21.4749 22.6464 20.5251 22.6464 19.9393 22.0607L15.4393 17.5607C14.8536 16.9749 14.8536 16.0251 15.4393 15.4393Z" fill="white"/>
</svg>
